<?xml version="1.0" encoding="UTF-8"?>
<svg width="484px" height="414px" viewBox="0 0 484 414" version="1.1" xmlns="http://www.w3.org/2000/svg" xmlns:xlink="http://www.w3.org/1999/xlink">
    <!-- Generator: Sketch 60 (88103) - https://sketch.com -->
    <title>SignIn_marchant_Mswipe_Illustrations-09</title>
    <desc>Created with Sketch.</desc>
    <g id="Page-1" stroke="none" stroke-width="1" fill="none" fill-rule="evenodd">
        <g id="SignIn_marchant_Mswipe_Illustrations-09">
            <path d="M111.5,343.4 L45.6,343.4 C42.7,343.4 40.2,341.3 39.7,338.3 L23.3,225.6 C22.8,222.4 25.1,219.4 28.3,218.9 C28.6,218.9 28.9,218.8 29.2,218.8 L95,218.8 C97.9,218.8 100.4,220.9 100.9,223.9 L117.4,336.6 C117.9,339.8 115.6,342.8 112.4,343.3 C112,343.4 111.7,343.4 111.5,343.4 Z" id="Path" fill="#F0F0F0" fill-rule="nonzero"></path>
            <path d="M53.4,343.4 L22.4,343.4 C19.5,343.4 17,341.3 16.5,338.3 L0.1,225.6 C-0.4,222.4 1.9,219.4 5.1,218.9 C5.4,218.9 5.7,218.8 6,218.8 L37,218.8 C39.9,218.8 42.4,220.9 42.9,223.9 L59.4,336.6 C59.9,339.8 57.6,342.8 54.4,343.3 C54,343.4 53.7,343.4 53.4,343.4 Z" id="Path" fill="#FAFAFA" fill-rule="nonzero"></path>
            <path d="M446.5,190.3 L126.4,190.3 C118.3,190.3 111.1,196.4 110.4,203.9 L102.3,290.9 C101.6,298.4 107.6,304.5 115.8,304.5 L436,304.5 C444.1,304.5 451.3,298.4 452,290.9 L460,203.9 C460.7,196.4 454.7,190.3 446.5,190.3 Z" id="Path" fill="#E1E1E1" fill-rule="nonzero"></path>
            <path d="M424.8,190.3 L104.7,190.3 C96.6,190.3 89.4,196.4 88.7,203.9 L80.6,290.9 C79.9,298.4 85.9,304.5 94.1,304.5 L414.2,304.5 C422.3,304.5 429.5,298.4 430.2,290.9 L438.3,203.9 C439,196.4 432.9,190.3 424.8,190.3 Z" id="Path" fill="#E7E7E7" fill-rule="nonzero"></path>
            <path d="M204.1,300.3 L204.1,336.2 C204.1,340.2 200.9,343.4 196.9,343.4 L71.5,343.4 C67.5,343.4 64.3,340.2 64.3,336.2 L64.3,300.3 C64.3,296.3 67.5,293.1 71.5,293.1 L197,293.1 C200.9,293.1 204.1,296.3 204.1,300.3 Z" id="Path" fill="#ECECEC" fill-rule="nonzero"></path>
            <path d="M397,299.7 L397,336.8 C397,340.4 394,343.4 390.4,343.4 L245.2,343.4 C241.6,343.4 238.6,340.4 238.6,336.8 L238.6,299.7 C238.6,296.1 241.5,293.1 245.2,293.1 L390.4,293.1 C394,293.1 397,296 397,299.7 Z" id="Path" fill="#E1E1E1" fill-rule="nonzero"></path>
            <path d="M362.5,299.7 L362.5,336.8 C362.5,340.4 359.5,343.4 355.9,343.4 L210.7,343.4 C207.1,343.4 204.1,340.4 204.1,336.8 L204.1,299.7 C204.1,296.1 207,293.1 210.7,293.1 L355.9,293.1 C359.6,293.1 362.5,296.1 362.5,299.7 Z" id="Path" fill="#ECECEC" fill-rule="nonzero"></path>
            <path d="M445.6,343.4 L396.6,343.4 C393.8,343.5 391.4,341.2 391.3,338.4 C391.3,337.8 391.4,337.2 391.6,336.7 L422.5,224 C423.3,221.1 426,219 429,218.9 L478,218.9 C480.8,218.8 483.2,221.1 483.3,223.9 C483.3,224.5 483.2,225.1 483,225.6 L452.1,338.3 C451.3,341.2 448.7,343.3 445.6,343.4 Z" id="Path" fill="#F0F0F0" fill-rule="nonzero"></path>
            <path d="M404.5,343.4 L373.4,343.4 C370.6,343.5 368.2,341.2 368.1,338.4 C368.1,337.8 368.2,337.2 368.4,336.6 L399.3,223.9 C400.1,221 402.8,218.9 405.8,218.8 L436.9,218.8 C439.7,218.7 442.1,221 442.2,223.8 C442.2,224.4 442.1,225 441.9,225.5 L411,338.3 C410.1,341.2 407.5,343.3 404.5,343.4 Z" id="Path" fill="#FAFAFA" fill-rule="nonzero"></path>
            <polygon id="Path" fill="#E1E1E1" fill-rule="nonzero" points="378.5 374 373.8 374 362.5 343.4 374.2 343.4"></polygon>
            <polygon id="Path" fill="#E1E1E1" fill-rule="nonzero" points="438.3 374 433.6 374 422.3 343.4 434 343.4"></polygon>
            <polygon id="Path" fill="#E1E1E1" fill-rule="nonzero" points="98.3 374 103 374 114.3 343.4 102.7 343.4"></polygon>
            <polygon id="Path" fill="#E1E1E1" fill-rule="nonzero" points="38.5 374 43.2 374 54.5 343.4 42.8 343.4"></polygon>
            <ellipse id="_Path_" fill="#F5F5F5" fill-rule="nonzero" cx="241.3" cy="398.5" rx="178.3" ry="15.2"></ellipse>
            <path d="M332.4,22.4 C332.4,10 322.4,0 310,0 C310,0 310,0 310,0 L134.6,0 C122.2,0 112.2,10 112.2,22.4 C112.2,22.4 112.2,22.4 112.2,22.4 L112.2,335.8 C112.2,348.2 122.2,358.2 134.6,358.2 C134.6,358.2 134.6,358.2 134.6,358.2 L310,358.2 C322.4,358.2 332.4,348.2 332.5,335.8 C332.5,335.8 332.5,335.8 332.5,335.8 L332.5,22.4 L332.4,22.4 Z" id="Path" fill="#007CFF"></path>
            <g id="Group" opacity="0.5" transform="translate(65.000000, 66.000000)" fill="#007CFF">
                <path d="M314.1,0.4 L224.8,0.4 C220.8,0.4 217.5,3.7 217.5,7.7 L217.5,89.7 C217.5,93.7 220.8,97 224.8,97 L314.1,97 L314.1,0.4 Z" id="Path"></path>
                <path d="M0.3,0.4 L89.6,0.4 C93.6,0.4 96.9,3.6 96.9,7.6 C96.9,7.6 96.9,7.6 96.9,7.6 L96.9,89.6 C96.9,93.6 93.6,96.9 89.6,96.9 L89.6,96.9 L0.3,96.9 L0.3,0.4 Z" id="Path"></path>
            </g>
            <g id="Group" opacity="0.45" transform="translate(195.000000, 190.000000)" fill="#007CFF">
                <path d="M61.2,3.7 C61.2,2.9 60.9,2.1 60.3,1.5 C59.7,0.9 58.9,0.6 58.1,0.6 L3.1,0.6 C1.4,0.6 0.1,1.9 0,3.6 L0,3.6 C0,5.3 1.4,6.7 3.1,6.7 L3.1,6.7 L58.1,6.7 C59.8,6.7 61.2,5.3 61.2,3.7 L61.2,3.7 Z" id="Path"></path>
            </g>
            <g id="Group" opacity="0.45" transform="translate(178.000000, 206.000000)" fill="#007CFF">
                <path d="M95,3 C95,1.3 93.6,0 91.9,0 L3.2,0 C2.4,0 1.6,0.3 1,0.9 C0.4,1.5 0.1,2.3 0.1,3.1 L0.1,3.1 C0.1,4.8 1.5,6.2 3.2,6.2 L3.2,6.2 L92,6.2 C92.8,6.2 93.6,5.9 94.2,5.3 C94.7,4.6 95,3.8 95,3 L95,3 Z" id="Path"></path>
            </g>
            <path d="M277.1,69.6 C277.1,64.3 272.8,60 267.6,60 C267.6,60 267.6,60 267.6,60 L177.3,60 C172,60 167.7,64.3 167.7,69.6 L167.7,69.6 L167.7,159.9 C167.7,165.2 172,169.5 177.3,169.5 L177.3,169.5 L267.6,169.5 C272.9,169.5 277.2,165.2 277.2,159.9 C277.2,159.9 277.2,159.9 277.2,159.9 L277.1,69.6 L277.1,69.6 Z" id="Path" fill="#FFCB55"></path>
            <path d="M206.2,92.6 C207.3,87.5 210.8,83.2 215.5,80.9 C217.7,79.9 220,79.4 222.4,79.4 C228.2,79.5 233.6,82.6 236.6,87.6 C237.5,89.2 238.2,90.8 238.5,92.6 L243.1,92.6 C246,92.6 248.3,94.8 248.6,97.6 C248.6,97.6 251.2,124.1 252.3,136 C252.6,138.9 250.5,141.4 247.7,141.7 C247.5,141.7 247.4,141.7 247.2,141.7 L197.4,141.7 C194.5,141.7 192.2,139.4 192.2,136.5 C192.2,136.3 192.2,136.2 192.2,136 C193.1,126.3 195,106.8 195.9,97.6 C196.2,94.8 198.6,92.6 201.4,92.6 L206.2,92.6 Z M235,92.6 C233.4,87 228.4,83.2 222.6,82.9 L222.3,82.9 C216.5,83.1 211.4,87 209.7,92.6 L235,92.6 Z" id="Shape" fill="#FFFFFF"></path>
            <path d="M368,174.3 L362.5,174.1 L365,184.5 C367,183.2 368.7,181.6 370.3,179.8 C371.2,178.7 371.1,177 370,176.1 L368,174.3 Z" id="Path" fill="#FF8B7B" fill-rule="nonzero"></path>
            <polygon id="Path" fill="#FF8B7B" fill-rule="nonzero" points="356.2 179.7 358.7 188.1 365 184.4 362.6 174.1"></polygon>
            <path d="M326.6,121.4 L324,124.4 C323.1,125.4 322.2,126.5 321.4,127.6 C319.7,129.7 318,131.9 316.3,134.1 C313.1,138.3 310.2,142.9 307.8,147.6 C307.5,148.2 307.3,148.7 307,149.3 L306.6,150.1 C306.6,150.1 306.6,150 306.6,150.1 C306.5,150.7 306.5,151.3 306.7,151.8 C307.3,154.1 308.3,156.2 309.5,158.3 C312.3,163 315.5,167.5 318.9,171.8 L314.5,176.5 C309.6,172.9 305.1,168.7 301.3,164 C299.1,161.4 297.4,158.4 296.1,155.2 C295.3,153.1 295,150.7 295.2,148.4 C295.3,147.7 295.5,147 295.7,146.3 L296.1,145.1 C296.4,144.3 296.6,143.6 296.9,142.8 C299.3,137.1 302.3,131.7 305.9,126.7 C307.6,124.2 309.4,121.8 311.3,119.5 C312.3,118.3 313.2,117.2 314.2,116.1 C315.2,114.9 316.2,113.9 317.3,112.7 L326.6,121.4 Z" id="Path" fill="#FF8B7B" fill-rule="nonzero"></path>
            <polygon id="Path" fill="#FF8B7B" fill-rule="nonzero" points="325.8 175.4 320.8 185.1 316 181 320 174.1"></polygon>
            <path d="M374,112.1 C377,117.5 379.9,122.9 382.6,128.3 C385.3,133.7 387.9,139.4 390.3,145.1 L390.5,145.6 L390.7,146.2 C390.8,146.6 390.9,147 391,147.5 C391.1,147.9 391.1,148.3 391.2,148.7 C391.2,149.1 391.2,149.4 391.2,149.8 C391.2,150.5 391.1,151.1 391,151.8 C390.9,152.4 390.8,152.9 390.6,153.5 C390,155.4 389.2,157.1 388.2,158.8 C387.3,160.3 386.4,161.7 385.3,163 C384.3,164.3 383.3,165.6 382.2,166.8 C378,171.5 373.4,175.8 368.4,179.7 L364,175.1 C367.7,170.5 371.4,165.7 374.5,160.9 C376,158.6 377.4,156.2 378.6,153.8 C379.1,152.8 379.4,151.8 379.7,150.7 C379.7,150.5 379.7,150.3 379.8,150.2 C379.8,150.1 379.8,149.9 379.8,149.9 C379.8,149.9 379.8,149.8 379.8,149.9 C379.8,149.9 379.8,150 379.8,150 C379.8,150 379.8,150.1 379.8,150.2 C379.8,150.2 379.8,150.3 379.8,150.3 C379.8,150.3 379.9,150.4 379.8,150.3 C377,145 374.1,139.7 371.3,134.4 C368.5,129.1 365.5,123.8 362.8,118.5 L374,112.1 Z" id="Path" fill="#FF8B7B" fill-rule="nonzero"></path>
            <path d="M330.4,79.3 C330.5,80 330.3,80.6 329.9,80.7 C329.5,80.8 329,80.4 328.9,79.7 C328.8,79 329,78.4 329.4,78.3 C329.8,78.2 330.3,78.6 330.4,79.3 Z" id="Path" fill="#1A2E35" fill-rule="nonzero"></path>
            <path d="M330.4,80.6 C330,82.9 329.4,85 328.4,87.1 C329.8,87.9 331.7,86.9 331.7,86.9 L330.4,80.6 Z" id="Path" fill="#FF5551" fill-rule="nonzero"></path>
            <path d="M329.6,85.8 C328.7,85.8 327.9,85.1 327.2,83.9 C326.5,82.4 326,80.8 326,79.2 C325.9,77.6 326,75.9 326.6,74.3 C327.1,72.9 327.9,72.1 328.8,72 C329.7,71.9 330.6,72.6 331.3,73.9 C332,75.4 332.5,77 332.5,78.6 C332.8,82.5 331.6,85.6 329.7,85.7 L329.6,85.7 L329.6,85.8 Z M328.9,72.5 L328.9,72.5 C328.1,72.6 327.5,73.3 327.1,74.4 C326.2,77.4 326.4,80.7 327.8,83.5 C328.4,84.6 329.1,85.2 329.8,85.1 C331.3,85 332.3,82 332,78.6 C331.9,77 331.5,75.5 330.8,74.1 C330.2,73.1 329.5,72.5 328.9,72.5 Z" id="Shape" fill="#1A2E35" fill-rule="nonzero"></path>
            <path d="M328.6,75.3 C328.7,75.3 328.7,75.3 328.8,75.2 C329.7,74.7 330.7,74.6 331.7,75 C331.9,75.1 332.2,75.1 332.3,74.9 C332.4,74.7 332.3,74.5 332.2,74.3 C332.2,74.3 332.1,74.3 332.1,74.3 C330.9,73.8 329.6,73.9 328.5,74.6 C328.3,74.7 328.3,74.9 328.4,75.1 C328.4,75.1 328.4,75.1 328.4,75.1 C328.4,75.2 328.5,75.3 328.6,75.3 Z" id="Path" fill="#1A2E35" fill-rule="nonzero"></path>
            <path d="M353.4,84 C353.2,91 350.6,99.4 354.8,103.5 C354.8,103.5 352.9,109.8 341.3,109.8 C328.6,109.8 335.5,103.5 335.5,103.5 C342.5,101.8 342.5,96.7 341.5,91.9 L353.4,84 Z" id="Path" fill="#FF8B7B" fill-rule="nonzero"></path>
            <path d="M357.8,105.7 C358.8,103.7 359.8,100.7 357.8,99.9 C355.6,99.1 344.1,97.1 335.5,99.9 C336.4,101.8 336.5,104.1 335.6,106.1 L357.8,105.7 Z" id="Path" fill="#1A2E35" fill-rule="nonzero"></path>
            <path d="M373,395.1 C372.3,395.2 371.6,395 371,394.5 C370.8,394.2 370.8,393.8 371,393.5 C371.1,393.3 371.4,393.1 371.7,393 C372.9,392.7 375.2,394.3 375.3,394.4 C375.4,394.4 375.4,394.5 375.4,394.6 C375.4,394.7 375.3,394.7 375.3,394.7 C374.4,395 373.7,395.1 373,395.1 Z M372,393.5 C371.9,393.5 371.9,393.5 371.8,393.5 C371.6,393.5 371.5,393.6 371.4,393.8 C371.2,394.1 371.3,394.3 371.3,394.3 C371.7,394.8 373.4,394.8 374.7,394.6 C373.8,394 372.9,393.6 372,393.5 Z" id="Shape" fill="#FFFFFF" fill-rule="nonzero"></path>
            <path d="M375.1,394.9 C375.1,394.9 375,394.9 375,394.9 C374.2,394.4 372.5,392.6 372.7,391.6 C372.8,391.3 373,391.1 373.3,391.1 C373.6,391.1 373.9,391.1 374.2,391.4 C375.2,392.2 375.3,394.7 375.3,394.8 C375.3,394.8 375.3,394.8 375.1,394.9 C375.2,394.9 375.2,394.9 375.1,394.9 Z M373.5,391.4 L373.5,391.4 C373.1,391.4 373.1,391.6 373.1,391.6 C373,392.2 374,393.6 374.9,394.2 C374.9,393.2 374.6,392.3 374,391.5 C373.9,391.5 373.7,391.4 373.5,391.4 Z" id="Shape" fill="#FFFFFF" fill-rule="nonzero"></path>
            <path d="M322.1,395.1 C321,395.1 320,395 319.6,394.5 C319.4,394.2 319.4,393.9 319.6,393.6 C320.5,392.1 324.3,394.3 324.7,394.5 C324.8,394.5 324.8,394.6 324.8,394.7 C324.8,394.8 324.7,394.8 324.6,394.9 C323.8,395 322.9,395.1 322.1,395.1 Z M320.8,393.5 C320.5,393.5 320.2,393.6 320,393.8 C319.8,394.1 319.9,394.2 319.9,394.3 C320.3,394.8 322.4,394.8 324,394.6 C323,394 321.9,393.6 320.8,393.5 L320.8,393.5 Z" id="Shape" fill="#FFFFFF" fill-rule="nonzero"></path>
            <path d="M324.6,394.9 L324.6,394.9 C323.5,394.4 321.6,392.7 321.7,391.7 C321.7,391.5 321.9,391.2 322.5,391.1 C322.9,391.1 323.3,391.2 323.6,391.5 C324.6,392.4 324.8,394.7 324.8,394.8 C324.8,394.9 324.8,394.9 324.7,395 C324.7,394.9 324.7,394.9 324.6,394.9 Z M322.7,391.4 L322.6,391.4 C322.2,391.4 322.2,391.6 322.2,391.6 C322.1,392.2 323.4,393.6 324.4,394.2 C324.4,393.2 324,392.3 323.4,391.6 C323.2,391.5 323,391.4 322.7,391.4 Z" id="Shape" fill="#FFFFFF" fill-rule="nonzero"></path>
            <polygon id="Path" fill="#FF8B7B" fill-rule="nonzero" points="334 394.7 325.5 394.7 325.4 375 333.9 375"></polygon>
            <polygon id="Path" fill="#FF8B7B" fill-rule="nonzero" points="384.8 394.7 376.4 394.7 372.9 375 381.3 375"></polygon>
            <path d="M375.8,393.7 L385.3,393.7 C385.6,393.7 385.9,393.9 386,394.3 L387.4,401.8 C387.5,402.5 387,403.2 386.3,403.3 C386.2,403.3 386.2,403.3 386.1,403.3 C382.8,403.3 381.2,403.1 377,403.1 C374.4,403.1 369.1,403.4 365.5,403.4 C361.9,403.4 361.6,399.9 363.1,399.6 C369.7,398.2 372.2,396.2 374.4,394.3 C374.8,393.9 375.3,393.7 375.8,393.7 Z" id="Path" fill="#1A2E35" fill-rule="nonzero"></path>
            <path d="M325.6,393.7 L334.8,393.7 C335.1,393.7 335.4,393.9 335.5,394.3 L336.9,401.8 C337,402.5 336.6,403.2 335.9,403.3 C335.8,403.3 335.7,403.3 335.7,403.3 C332.4,403.3 327.6,403.1 323.4,403.1 C318.5,403.1 314.2,403.4 308.5,403.4 C305,403.4 304.2,399.9 305.7,399.6 C312.4,398.1 317.8,398 323.7,394.5 C324.2,393.9 324.9,393.7 325.6,393.7 Z" id="Path" fill="#1A2E35" fill-rule="nonzero"></path>
            <path d="M371,105.4 C378.9,107.2 387.1,128.9 387.1,128.9 L370.7,139.8 C366.9,134.1 363.7,128.1 360.9,121.9 C356.6,112.1 362.9,103.6 371,105.4 Z" id="Path" fill="#007CFF" fill-rule="nonzero"></path>
            <path d="M371,105.4 C378.9,107.2 387.1,128.9 387.1,128.9 L370.7,139.8 C366.9,134.1 363.7,128.1 360.9,121.9 C356.6,112.1 362.9,103.6 371,105.4 Z" id="Path" fill="#FAFAFA" fill-rule="nonzero" opacity="0.3"></path>
            <path d="M364.7,119.3 L371.5,139.4 L370.7,139.9 C370.7,139.9 367.6,135.3 364.3,129.1 L364.7,119.3 Z" id="Path" fill="#000000" fill-rule="nonzero" opacity="0.2"></path>
            <path d="M318.1,143.3 C318.2,152.8 318.7,164.5 320.1,179.1 L365.4,179.1 C366,172.2 362.9,138.2 370.9,105.4 C365.9,104.4 360.9,103.8 355.8,103.5 C349.4,103.1 342.9,103.1 336.5,103.5 C332.1,103.9 327.7,104.7 323.4,105.9 C323.4,105.9 319.5,110.1 318.4,129.8 C318.2,133.7 318.1,138.2 318.1,143.3 Z" id="Path" fill="#007CFF" fill-rule="nonzero"></path>
            <path d="M318.1,143.3 C318.2,152.8 318.7,164.5 320.1,179.1 L365.4,179.1 C366,172.2 362.9,138.2 370.9,105.4 C365.9,104.4 360.9,103.8 355.8,103.5 C349.4,103.1 342.9,103.1 336.5,103.5 C332.1,103.9 327.7,104.7 323.4,105.9 C323.4,105.9 319.5,110.1 318.4,129.8 C318.2,133.7 318.1,138.2 318.1,143.3 Z" id="Path" fill="#FAFAFA" fill-rule="nonzero" opacity="0.3"></path>
            <path d="M318.1,143.3 C320.8,138.3 325.8,128.2 325.1,122.5 L318.4,129.7 C318.2,133.7 318.1,138.2 318.1,143.3 Z" id="Path" fill="#000000" fill-rule="nonzero" opacity="0.2"></path>
            <path d="M332.4,113.6 C333.1,121.6 314.8,141.1 314.8,141.1 L300.1,129.2 C300.1,129.2 306.1,118.7 313.8,111.3 C322.4,102.9 331.6,104.5 332.4,113.6 Z" id="Path" fill="#007CFF" fill-rule="nonzero"></path>
            <path d="M332.4,113.6 C333.1,121.6 314.8,141.1 314.8,141.1 L300.1,129.2 C300.1,129.2 306.1,118.7 313.8,111.3 C322.4,102.9 331.6,104.5 332.4,113.6 Z" id="Path" fill="#FAFAFA" fill-rule="nonzero" opacity="0.3"></path>
            <polygon id="Path" fill="#000000" fill-rule="nonzero" opacity="0.2" points="325.4 375 325.4 385.2 333.9 385.2 333.9 375"></polygon>
            <polygon id="Path" fill="#000000" fill-rule="nonzero" opacity="0.2" points="381.3 375 372.9 375 374.7 385.2 383.1 385.2"></polygon>
            <path d="M352.2,72.3 C353.4,80.6 354.6,85.5 351.4,90.7 C348.3,95.9 341.6,97.6 336.4,94.5 C334.5,93.4 332.9,91.7 332,89.7 C328.7,82.8 327.2,70.3 334.5,65 C339.3,61.3 346.3,62.2 350,67 C351.2,68.6 351.9,70.4 352.2,72.3 Z" id="Path" fill="#FF8B7B" fill-rule="nonzero"></path>
            <path d="M338,70 C311.3,69.4 333.1,53.2 333.1,53.2 C328.7,60.9 341.3,60.2 344.5,56.7 C348.4,52.5 355.3,58.4 354.8,63 C358.9,62.5 362.1,65.5 360.6,75.2 C359.1,84.9 355.9,87.6 354.3,90 C352.7,92.4 352.8,90.1 347.2,91.1 C343.4,91.8 337,83.6 336.3,78.8 C335.8,75.8 336.4,72.7 338,70 Z" id="Path" fill="#1A2E35" fill-rule="nonzero"></path>
            <path d="M351.7,64.4 C351.7,64.4 358.7,61.5 354,54.3 C360.5,57.7 359.5,63.8 351.7,64.4 Z" id="Path" fill="#1A2E35" fill-rule="nonzero"></path>
            <path d="M341.7,77.4 C341.7,79.5 341,81.6 339.7,83.3 C338,85.5 336,84.4 335.5,82 C335.1,79.8 335.5,76 337.6,74.6 C339.7,73.2 341.7,74.9 341.7,77.4 Z" id="Path" fill="#FF8B7B" fill-rule="nonzero"></path>
            <path d="M336.2,179.1 C336.2,179.1 343.3,243.9 347.7,268.1 C352.5,294.7 370.8,383.2 370.8,383.2 L386.3,383.2 C386.3,383.2 375.3,296.8 373,270.6 C370.5,242.1 365.5,179.2 365.5,179.2 L336.2,179.2 L336.2,179.1 Z" id="Path" fill="#1A2E35" fill-rule="nonzero"></path>
            <path d="M368.5,377.5 C368.4,377.5 369.9,383.5 369.9,383.5 L387.4,383.5 L387.3,378.2 L368.5,377.5 Z" id="Path" fill="#007CFF" fill-rule="nonzero"></path>
            <path d="M341.4,202.2 C352.4,204.4 349.7,245.8 347.5,267.2 C344.9,252.1 341.3,223.1 338.9,202.5 C339.7,202.2 340.6,202 341.4,202.2 Z" id="Path" fill="#000000" fill-rule="nonzero" opacity="0.2"></path>
            <path d="M320.1,179.1 C320.1,179.1 316.5,242.4 316.4,268.3 C316.4,295.2 322.4,383.2 322.4,383.2 L336.8,383.2 C336.8,383.2 340.7,296.8 342.3,270.4 C344.1,241.6 350,179.2 350,179.2 L320.1,179.2 L320.1,179.1 Z" id="Path" fill="#1A2E35" fill-rule="nonzero"></path>
            <path d="M316.7,171 L320.7,171.3 C321.9,171.4 322.8,172.5 322.7,173.7 C322.7,173.8 322.7,174 322.6,174.1 L320.9,179.7 C320.4,181.3 318.7,182.1 317.1,181.6 C316.8,181.5 316.5,181.3 316.2,181.1 C314.1,179.2 312.6,176.7 311.9,173.9 L316.7,171 Z" id="Path" fill="#FF8B7B" fill-rule="nonzero"></path>
            <path d="M325.8,372.9 C325.7,372.9 325.7,372.8 325.7,372.8 L325.7,372.8 C324.1,348.5 320.4,289.5 320.5,268.4 C320.6,246.8 323.1,198.4 323.9,184.1 C323.9,184 324,184 324,184 C324.1,184 324.1,184.1 324.1,184.2 C323.3,198.5 320.7,246.9 320.7,268.5 C320.6,289.6 324.3,348.6 325.9,372.9 C325.9,372.8 325.8,372.9 325.8,372.9 L325.8,372.9 Z" id="Path" fill="#FAFAFA" fill-rule="nonzero" opacity="0.2"></path>
            <path d="M319.8,377.5 C319.7,377.5 320.4,383.5 320.4,383.5 L337.9,383.5 L338.6,378.2 L319.8,377.5 Z" id="Path" fill="#007CFF" fill-rule="nonzero"></path>
        </g>
    </g>
</svg>